<svg xmlns="http://www.w3.org/2000/svg" version="1.1" xmlns:xlink="http://www.w3.org/1999/xlink" width="274.29" height="274.29"><svg xmlns="http://www.w3.org/2000/svg" version="1.1" xmlns:xlink="http://www.w3.org/1999/xlink" width="274.29" height="274.29"><svg id="Ebene_1" xmlns="http://www.w3.org/2000/svg" viewBox="0 0 274.29 274.29"><defs><style>.cls-1{fill:#0d363f;}.cls-1,.cls-2{stroke-width:0px;}.cls-2{fill:#eff6f9;}</style></defs><path class="cls-1" d="m172.94,101.34s0,0,0,0c-7.51-7.87-21.66-9.69-35.8-9.87-14.14.18-28.28,2.01-35.8,9.87-7.87,7.51-9.69,21.66-9.87,35.8.18,14.14,2.01,28.28,9.87,35.8h0c7.51,7.87,21.66,9.69,35.8,9.87,14.14-.18,28.29-2.01,35.8-9.87,7.87-7.51,9.69-21.66,9.87-35.8-.18-14.14-2.01-28.28-9.87-35.8Z"></path><path class="cls-2" d="m163.8,129.74c-.76-.61-1.81-.73-2.69-.3l-11.55,5.64-11.85-27.24c-.39-.91-1.28-1.5-2.26-1.52h-.05c-.96,0-1.85.55-2.27,1.42l-23.31,47.79c-.47.97-.27,2.14.49,2.9.49.48,1.13.73,1.78.73.38,0,.77-.09,1.13-.27l30.13-15.16,2.42-1.18-2.02-4.64-2.64,1.28s-.02.01-.03.01l-23.45,11.8,17.63-36.14,9.11,20.93.65,1.49,2.02,4.64,3.74,8.59,3.1,7.12c.43,1,1.45,1.61,2.53,1.51,1.08-.09,1.98-.87,2.24-1.92l6.03-24.92c.23-.95-.11-1.95-.87-2.56Zm-8.3,18.99l-3.93-9.02,6.93-3.38-3,12.4Z"></path></svg></svg><style>@media (prefers-color-scheme: light) { :root { filter: none; } }
@media (prefers-color-scheme: dark) { :root { filter: none; } }
</style></svg>